<?xml version="1.0" encoding="UTF-8" standalone="no"?>
<!--
  ~ Copyright (c) 2017, WSO2 Inc. (http://www.wso2.org) All Rights Reserved.
  ~
  ~ WSO2 Inc. licenses this file to you under the Apache License,
  ~ Version 2.0 (the "License"); you may not use this file except
  ~ in compliance with the License.
  ~ You may obtain a copy of the License at
  ~
  ~   http://www.apache.org/licenses/LICENSE-2.0
  ~
  ~ Unless required by applicable law or agreed to in writing,
  ~ software distributed under the License is distributed on an
  ~ "AS IS" BASIS, WITHOUT WARRANTIES OR CONDITIONS OF ANY
  ~ KIND, either express or implied. See the License for the
  ~ specific language governing permissions and limitations
  ~ under the License.
  -->

<svg
   xmlns:dc="http://purl.org/dc/elements/1.1/"
   xmlns:cc="http://creativecommons.org/ns#"
   xmlns:rdf="http://www.w3.org/1999/02/22-rdf-syntax-ns#"
   xmlns:svg="http://www.w3.org/2000/svg"
   xmlns="http://www.w3.org/2000/svg"
   xmlns:sodipodi="http://sodipodi.sourceforge.net/DTD/sodipodi-0.dtd"
   xmlns:inkscape="http://www.inkscape.org/namespaces/inkscape"
   width="312"
   height="74"
   viewBox="0 0 312 74"
   id="svg2"
   version="1.1"
   inkscape:version="0.91 r13725"
   sodipodi:docname="siddhi-logo-w.svg">
  <metadata
     id="metadata50">
    <rdf:RDF>
      <cc:Work
         rdf:about="">
        <dc:format>image/svg+xml</dc:format>
        <dc:type
           rdf:resource="http://purl.org/dc/dcmitype/StillImage" />
      </cc:Work>
    </rdf:RDF>
  </metadata>
  <defs
     id="defs48" />
  <sodipodi:namedview
     pagecolor="#ffffff"
     bordercolor="#666666"
     borderopacity="1"
     objecttolerance="10"
     gridtolerance="10"
     guidetolerance="10"
     inkscape:pageopacity="0"
     inkscape:pageshadow="2"
     inkscape:window-width="1161"
     inkscape:window-height="713"
     id="namedview46"
     showgrid="false"
     inkscape:zoom="1.9871795"
     inkscape:cx="14.504234"
     inkscape:cy="25.58706"
     inkscape:window-x="0"
     inkscape:window-y="0"
     inkscape:window-maximized="0"
     inkscape:current-layer="svg2" />
  <g
     fill="#02AAAD"
     id="g4"
     style="fill:#ffffff">
    <path
       d="M66.5 56.5l2-1.6c2 2.4 4.5 3.7 8 3.7 3.6 0 6.2-2 6.2-4.6 0-1.7-1.2-2.8-5-4.3-4.4-1.8-6.6-3.3-6.6-6.5 0-4 3.8-7 9-7 3.8 0 6.8 1.5 8.6 3.7l-2 1.7c-1.8-2-4-3-6.8-3-3.7 0-5.8 2-5.8 4.2 0 2 1.5 3 5.3 4.4 4.2 1.6 6.3 3.3 6.3 6.4 0 4.3-4 7.3-9.2 7.3-4.5 0-7.8-1.6-10-4.5zM93.8 43h2.7l-4.8 17.8H89l4.8-18zm1.7-7h3l-.8 3h-3l.8-3zM99 53.6c0-6.3 5-11 10-11 3.8 0 5.8 2 6.8 4.3l3-11.5h2.7l-6.7 25.3H112l1-3c-1.8 2-4 3.4-7 3.4-4 0-7-3-7-7.6zm16-3.2c0-3-2.4-5.5-5.7-5.5-4.2 0-7.5 3.8-7.5 8.4 0 3.3 2 5.4 5 5.4 4 0 8-4 8-8.4zM122 53.6c0-6.3 4.7-11 10-11 3.6 0 5.7 2 6.6 4.3l3-11.5h2.7l-6.7 25.3H135l.7-3c-1.7 2-4 3.4-6.7 3.4-4 0-7-3-7-7.6zm15.7-3.2c0-3-2.3-5.5-5.5-5.5-4.3 0-7.5 3.8-7.5 8.4 0 3.3 2 5.4 5 5.4 4 0 8-4 8-8.4zM150.3 35.5h2.7l-2.8 10.3c1.7-1.8 3.5-3.3 6.3-3.3 3.4 0 5.7 2 5.7 5.5 0 1-.2 2-.5 2.8l-2.6 10h-2.6l2.7-10.2c.3-.5.4-1.4.4-2 0-2.3-1.5-3.7-4-3.7-2.8 0-5.5 2.3-6.5 5.7l-2.8 10h-2.6l6.7-25.2zM169.8 43h2.7l-4.8 17.8H165l4.8-18zm1.7-7h3l-.7 3h-3l.7-3z"
       id="path6"
       style="fill:#ffffff" />
  </g>
  <path
     fill="#02AAAD"
     d="M187.8 71.5h-137c-2.8 0-5-1-6.6-3-1.5-2-2-4.6-1.2-7.2l7-26.8c1.4-5 6.8-9 12.5-9h147.3v2H62.5c-4.8 0-9.4 3.3-10.5 7.5l-7 26.8c-.6 2-.3 4 .8 5.5 1 1.4 3 2.2 5 2.2h137v2zM291 71.5h-22.7v-2H291c4.3 0 9.2-4 10.4-8.5l7-26.3c.6-2 .4-3.8-.6-5-1-1.4-3-2.2-5-2.2h-11v-2h11c2.7 0 5 1 6.5 3 1.4 1.7 1.8 4 1 6.7l-7 26.3c-1.4 5.4-7 10-12.4 10zM17.6 33.2c-9 0-16 7.2-16 16 0 9 7 16.2 16 16.2s16.2-7.2 16.2-16c0-9-7.2-16.2-16.2-16.2zM6.3 43c1.2-2 2.8-3.5 4.7-4.7 2-1.2 4-1.8 6.5-1.8 2.3 0 4.4.6 6.4 1.8 2 1.2 3.6 2.7 4.6 4.7.8 1.4 1.4 3 1.6 4.6h-3.8L24 52l-5.8-14.4L13 49.3H4.6c0-2.4.6-4.4 1.7-6.3zm22.3 13.2c-.8 1.8-2.4 3.4-4.5 4.5-2 1.2-4 1.8-6.5 1.8-3.6 0-6.7-1.2-9.2-3.7-2-2-3.3-4.7-3.6-7.5H14l4-9 5.7 14 3.7-7h3v.3c0 2.5-.7 4.7-1.8 6.6z"
     id="path8"
     style="fill:#ffffff" />
  <path
     fill="#02AAAD"
     d="M31.8 47.5h16v2h-16z"
     id="path10"
     style="fill:#ffffff" />
  <g
     fill="#02AAAD"
     id="g12"
     style="fill:#ffffff">
    <path
       d="M246 29.3l5.3 2.6 4-15.5h-13l-5 18.5"
       id="path14"
       style="fill:#ffffff" />
    <path
       d="M246.2 32.8l-10 6.5-8.3 32.2h13l9.5-36.7"
       id="path16"
       style="fill:#ffffff" />
  </g>
  <g
     fill="#02AAAD"
     id="g18"
     style="fill:#ffffff">
    <path
       d="M221.2 45.6l10.3-6.8 4.2-15.3h-13L217 44.3M221.7 48.8l-5.5-1.6-6.6 24.3h13l7.8-28.3"
       id="path20"
       style="fill:#ffffff" />
  </g>
  <g
     fill="#02AAAD"
     id="g22"
     style="fill:#ffffff">
    <path
       d="M205 40.7l6.7 2 4.4-17.2h-13L194 61"
       id="path24"
       style="fill:#ffffff" />
    <path
       d="M206.4 44.3l-14.7 27.2h12.7l6.6-26"
       id="path26"
       style="fill:#ffffff" />
  </g>
  <path
     fill="#02AAAD"
     d="M280.5 36.4c1 1.8 1.5 3.8 1.5 6 0 6.7-5.5 12.2-12.4 12.2h-1l-4.2 17h13L288 31l-7.3 5.4z"
     id="path28"
     style="fill:#ffffff" />
  <path
     fill="#02AAAD"
     d="M269.6 32c-5.7 0-10.3 4.7-10.3 10.3 0 5.7 4.6 10.3 10.3 10.3 5.7 0 10.4-4.6 10.4-10.3 0-5.6-4.6-10.3-10.4-10.3zm.3 12.3l-6.3-3 1.3-2.8 4.7 2.3 5-3.5 1.7 2.4-6.5 4.6z"
     id="path30"
     style="fill:#ffffff" />
  <g
     fill="#02AAAD"
     id="g32"
     style="fill:#ffffff">
    <path
       d="M264.6 51.2l2.2-8.4-7-3.5c-.3 1-.5 2-.5 3 0 3.8 2 7.2 5.3 9z"
       id="path34"
       style="fill:#ffffff" />
    <path
       d="M257.3 42.3c0-1.3.2-2.6.7-3.8L255 37l-9 34.5h13l4.8-18.3c-4-2-6.7-6-6.7-11z"
       id="path36"
       style="fill:#ffffff" />
  </g>
  <g
     fill="#02AAAD"
     id="g38"
     style="fill:#ffffff">
    <path
       d="M269.6 30h.6l7.3-27.5h-13L256 34.2l3.2 1.5c2.2-3.4 6-5.7 10.4-5.7zM269.6 32c-3.5 0-6.7 2-8.5 4.6l6.6 3.2 2-7.8z"
       id="path40"
       style="fill:#ffffff" />
  </g>
  <g
     fill="#02AAAD"
     id="g42"
     style="fill:#ffffff">
    <path
       d="M274.2 33l-1.3 5.2 4-3c-.7-1-1.7-1.6-2.8-2zM276.2 25.5l-1.5 5.6c1.5.8 3 1.8 4 3l10.3-7.5.2-1h-13z"
       id="path44"
       style="fill:#ffffff" />
  </g>
</svg>
